<?xml version="1.0" encoding="UTF-8"?>
<svg width="158px" height="215px" viewBox="0 0 158 215" version="1.1" xmlns="http://www.w3.org/2000/svg" xmlns:xlink="http://www.w3.org/1999/xlink">
    <!-- Generator: Sketch 53.2 (72643) - https://sketchapp.com -->
    <title>Group 2</title>
    <desc>Created with Sketch.</desc>
    <defs>
        <polygon id="path-1" points="0 0.580995475 143.28355 0.580995475 143.28355 158.225077 0 158.225077"></polygon>
    </defs>
    <g id="Symbols" stroke="none" stroke-width="1" fill="none" fill-rule="evenodd">
        <g id="Lv1/Logo/Vertical">
            <g id="Group-2">
                <path d="M23.928,214 L23.928,202.56 L29.08,202.56 C30.472,202.56 31.496,202.944 32.2,203.616 C32.936,204.304 33.352,205.28 33.352,206.432 C33.352,208.624 31.832,210.176 29.48,210.176 L26.808,210.176 L26.808,214 L23.928,214 Z M26.808,207.936 L28.904,207.936 C29.928,207.936 30.504,207.328 30.504,206.416 C30.504,205.504 29.912,204.944 28.904,204.944 L26.808,204.944 L26.808,207.936 Z M44.36,214 L44.36,202.56 L53.032,202.56 L53.032,204.896 L47.192,204.896 L47.192,206.944 L52.2,206.944 L52.2,209.152 L47.192,209.152 L47.192,211.6 L53.128,211.6 L53.128,214 L44.36,214 Z M69.368,211.968 C71.224,211.968 72.136,210.384 72.136,208.304 C72.136,206.224 71.224,204.624 69.368,204.624 C67.528,204.624 66.584,206.224 66.584,208.304 C66.584,210.384 67.528,211.968 69.368,211.968 Z M69.352,214.272 C65.896,214.272 63.704,211.728 63.704,208.304 C63.704,204.88 65.896,202.336 69.352,202.336 C72.824,202.336 75.016,204.88 75.016,208.304 C75.016,211.728 72.824,214.272 69.352,214.272 Z M86.12,214 L86.12,202.56 L91.272,202.56 C92.664,202.56 93.688,202.944 94.392,203.616 C95.128,204.304 95.544,205.28 95.544,206.432 C95.544,208.624 94.024,210.176 91.672,210.176 L89,210.176 L89,214 L86.12,214 Z M89,207.936 L91.096,207.936 C92.12,207.936 92.696,207.328 92.696,206.416 C92.696,205.504 92.104,204.944 91.096,204.944 L89,204.944 L89,207.936 Z M106.552,214 L106.552,202.56 L109.384,202.56 L109.384,211.6 L114.52,211.6 L114.52,214 L106.552,214 Z M125.592,214 L125.592,202.56 L134.264,202.56 L134.264,204.896 L128.424,204.896 L128.424,206.944 L133.432,206.944 L133.432,209.152 L128.424,209.152 L128.424,211.6 L134.36,211.6 L134.36,214 L125.592,214 Z" id="PEOPLE" fill="#1F977C"></path>
                <g id="Group-6">
                    <g id="Group-3" transform="translate(0.000000, 0.002919)">
                        <mask id="mask-2" fill="white">
                            <use xlink:href="#path-1"></use>
                        </mask>
                        <g id="Clip-2"></g>
                        <path d="M78.8228872,158.225135 C55.5889067,158.225135 35.8201139,150.737177 21.6540067,136.571654 C7.48848343,122.405547 -5.83856371e-05,102.637338 -5.83856371e-05,79.4033572 C-5.83856371e-05,56.1693767 7.48848343,36.4005839 21.6540067,22.2344767 C35.8201139,8.06836958 55.5889067,0.580995475 78.8228872,0.580995475 C106.43112,0.580995475 129.323544,11.3274558 143.28355,30.8411035 L118.149117,48.8209604 C110.035265,37.4783827 96.4366662,31.4833455 78.8228872,31.4833455 C63.9625748,31.4833455 51.7500511,35.8412495 43.5059991,44.0858853 C35.2607794,52.3305211 30.9028755,64.5430448 30.9028755,79.4033572 C30.9028755,94.2630857 35.2607794,106.475026 43.5059991,114.719661 C51.7500511,122.964297 63.9625748,127.322785 78.8228872,127.322785 C96.4366662,127.322785 110.035265,121.327164 118.149117,109.98517 L143.28355,127.965027 C129.323544,147.478675 106.43112,158.225135 78.8228872,158.225135" id="Fill-1" fill="#000000" mask="url(#mask-2)"></path>
                    </g>
                    <path d="M143.282849,127.96818 L118.149584,109.987739 C123.851525,102.018683 126.742198,91.7293826 126.742198,79.4059261 C126.742198,67.0824697 123.851525,56.7931689 118.149584,48.8241133 L143.282849,30.8430886 C152.67885,43.9763538 157.644548,60.7692308 157.644548,79.4059261 C157.644548,98.0432054 152.67885,114.835498 143.282849,127.96818" id="Fill-4" fill="#1F977C"></path>
                </g>
                <g id="Group" transform="translate(4.000000, 176.000000)">
                    <path d="M141.077814,17.8448197 C138.046969,17.8448197 135.217166,16.8500028 133.109645,15.0436648 L135.402744,12.3680028 C136.850856,13.6092423 138.919335,14.3211296 141.077814,14.3211296 C143.760575,14.3211296 145.634096,13.5362282 145.634096,12.4126225 C145.634096,12.2607634 145.634096,12.0315803 144.975194,11.6604254 C144.168744,11.2066225 142.783758,10.8020028 140.740631,10.4232423 C138.623223,10.0307915 137.13987,9.54124225 136.072546,8.88259437 C134.258096,7.76304507 133.877307,6.27081972 133.877307,5.21617183 C133.877307,3.83777746 134.550913,2.52910141 135.725983,1.62580563 C136.998152,0.647974648 138.793335,0.152340845 141.061842,0.152340845 C144.035899,0.152340845 146.412913,0.888566197 148.328518,2.40335493 L146.142913,5.16749577 C144.856039,4.14986197 143.241617,3.67603099 141.061842,3.67603099 C138.546659,3.67603099 137.400997,4.47436901 137.400997,5.21617183 C137.400997,5.36194648 137.400997,5.56172113 137.922997,5.88394648 C138.589251,6.29490423 139.753166,6.65642535 141.3828,6.95836901 C143.880997,7.42155211 145.522039,7.92453803 146.703701,8.59003099 C148.732124,9.73189014 149.157786,11.2989042 149.157786,12.4126225 C149.157786,14.1898056 148.207842,15.700031 146.482377,16.6644254 C145.100941,17.4366507 143.231983,17.8448197 141.077814,17.8448197" id="Fill-33" fill="#221815"></path>
                    <polygon id="Fill-43" fill="#221815" points="111.803045 17.2308169 115.326735 17.2308169 115.326735 6.82377465 123.062425 17.2308169 127.019637 17.2308169 127.019637 1.49983099 123.495693 1.49983099 123.495693 11.9068732 115.710059 1.43214085 111.803045 1.43214085"></polygon>
                    <path d="M31.0726394,3.53436338 C29.3781042,3.53436338 27.9857662,4.03126479 27.0454563,4.97132113 C26.1054,5.91137746 25.6084986,7.30422254 25.6084986,8.99850423 C25.6084986,10.6930394 26.1054,12.0853775 27.0454563,13.0256873 C27.9857662,13.9657437 29.3781042,14.4626451 31.0726394,14.4626451 C32.7671746,14.4626451 34.1597662,13.9657437 35.0998225,13.0256873 C36.0398789,12.0853775 36.5367803,10.6930394 36.5367803,8.99850423 C36.5367803,7.30422254 36.0398789,5.91137746 35.0998225,4.97132113 C34.1597662,4.03126479 32.7671746,3.53436338 31.0726394,3.53436338 M31.0726394,17.9863352 C28.4233437,17.9863352 26.1692873,17.1327296 24.5538507,15.517293 C22.9386676,13.9021099 22.0848085,11.6478 22.0848085,8.99850423 C22.0848085,6.34920845 22.9386676,4.09489859 24.5538507,2.47971549 C26.1692873,0.864532394 28.4233437,0.0106732394 31.0726394,0.0106732394 C33.7219352,0.0106732394 35.9762451,0.864532394 37.5914282,2.47971549 C39.2068648,4.09489859 40.0607239,6.34920845 40.0607239,8.99850423 C40.0607239,11.6478 39.2068648,13.9021099 37.5914282,15.517293 C35.9762451,17.1327296 33.7219352,17.9863352 31.0726394,17.9863352" id="Fill-29" fill="#221815"></path>
                    <path d="M97.3265831,3.53436338 C95.6320479,3.53436338 94.2397099,4.03126479 93.2994,4.97132113 C92.3593437,5.91137746 91.8624423,7.30422254 91.8624423,8.99850423 C91.8624423,10.6930394 92.3593437,12.0853775 93.2994,13.0256873 C94.2397099,13.9657437 95.6320479,14.4626451 97.3265831,14.4626451 C99.0211183,14.4626451 100.41371,13.9657437 101.353766,13.0256873 C102.293823,12.0853775 102.790977,10.6930394 102.790977,8.99850423 C102.790977,7.30422254 102.293823,5.91137746 101.353766,4.97132113 C100.41371,4.03126479 99.0211183,3.53436338 97.3265831,3.53436338 M97.3265831,17.9863352 C94.6772873,17.9863352 92.423231,17.1327296 90.8077944,15.517293 C89.1926113,13.9021099 88.3387521,11.6478 88.3387521,8.99850423 C88.3387521,6.34920845 89.1926113,4.09489859 90.8077944,2.47971549 C92.423231,0.864278873 94.6772873,0.0106732394 97.3265831,0.0106732394 C99.9758789,0.0106732394 102.230189,0.864278873 103.845372,2.47971549 C105.460808,4.09489859 106.314668,6.34920845 106.314668,8.99850423 C106.314668,11.6478 105.460808,13.9021099 103.845372,15.517293 C102.230189,17.1327296 99.9758789,17.9863352 97.3265831,17.9863352" id="Fill-31" fill="#221815"></path>
                    <path d="M8.98808451,17.9864366 C6.33878873,17.9864366 4.08447887,17.1325775 2.46929577,15.5173944 C0.854112676,13.9019577 0,11.6479014 0,8.99860563 C0,6.34930986 0.854112676,4.095 2.46929577,2.47956338 C4.08447887,0.864380282 6.33878873,0.0105211268 8.98808451,0.0105211268 C12.1360563,0.0105211268 14.7465634,1.23604225 16.3384225,3.46119718 L13.4723662,5.51116901 C12.5472676,4.21795775 10.9964789,3.53446479 8.98808451,3.53446479 C7.2935493,3.53446479 5.90095775,4.0313662 4.96090141,4.97142254 C4.02084507,5.91147887 3.52394366,7.30407042 3.52394366,8.99860563 C3.52394366,10.6928873 4.02084507,12.0854789 4.96090141,13.0257887 C5.90095775,13.9658451 7.2935493,14.4627465 8.98808451,14.4627465 C10.9964789,14.4627465 12.5472676,13.779 13.4723662,12.4857887 L16.3384225,14.5360141 C14.7465634,16.761169 12.1360563,17.9864366 8.98808451,17.9864366" id="Fill-35" fill="#221815"></path>
                    <path d="M16.3383465,14.5360394 L13.4725437,12.4858141 C14.1225718,11.5769408 14.4524028,10.4036451 14.4524028,8.99863099 C14.4524028,7.59336338 14.1225718,6.42006761 13.4725437,5.51144789 L16.3383465,3.46096901 C17.4097268,4.95851831 17.9758394,6.87336338 17.9758394,8.99863099 C17.9758394,11.1236451 17.4097268,13.0384901 16.3383465,14.5360394" id="Fill-37" fill="#E6E6E6"></path>
                    <polygon id="Fill-39" fill="#221815" points="57.0040986 1.43203944 53.1574225 8.60110986 49.310493 1.43203944 45.5492535 1.43203944 45.5492535 17.2984056 49.0729437 17.2984056 49.0729437 8.44215211 53.1574225 16.0541239 57.2416479 8.44189859 57.2416479 17.2984056 60.765338 17.2984056 60.765338 1.43203944"></polygon>
                    <polygon id="Fill-41" fill="#221815" points="79.052907 1.43203944 75.2419775 8.02054648 71.4310479 1.43203944 67.6338085 1.43203944 67.6338085 17.2984056 71.1574986 17.2984056 71.1574986 7.99722254 75.2419775 15.0585465 79.3264563 7.99722254 79.3264563 17.2984056 82.8501465 17.2984056 82.8501465 1.43203944"></polygon>
                </g>
            </g>
        </g>
    </g>
</svg>